<?xml version="1.0" standalone="no"?>
<!DOCTYPE svg PUBLIC "-//W3C//DTD SVG 20010904//EN"
 "http://www.w3.org/TR/2001/REC-SVG-20010904/DTD/svg10.dtd">
<svg version="1.0" xmlns="http://www.w3.org/2000/svg"
 width="557.000000pt" height="101.000000pt" viewBox="0 0 557.000000 101.000000"
 preserveAspectRatio="xMidYMid meet">

<g transform="translate(0.000000,101.000000) scale(0.100000,-0.100000)"
fill="#000000" stroke="none">
<path d="M433 973 c-23 -24 -97 -163 -215 -402 -99 -201 -186 -383 -194 -405
-28 -77 -15 -127 37 -145 34 -12 810 -16 867 -5 51 10 75 40 69 87 -5 37 -179
392 -350 716 -106 200 -145 228 -214 154z"/>
<path d="M3720 515 l0 -355 80 0 80 0 0 37 0 36 23 -20 c40 -37 84 -53 147
-53 77 0 119 19 169 76 88 101 88 287 0 388 -50 57 -92 76 -169 76 -63 0 -107
-16 -147 -53 l-23 -20 0 121 0 122 -80 0 -80 0 0 -355z m350 26 c82 -58 61
-207 -33 -238 -48 -16 -102 1 -131 40 -29 40 -29 134 0 174 38 51 110 62 164
24z"/>
<path d="M5410 750 c0 -108 -8 -145 -23 -106 -3 7 -26 24 -52 36 -37 18 -59
21 -115 18 -91 -5 -142 -39 -185 -123 -27 -52 -30 -69 -30 -145 0 -76 4 -93
30 -145 40 -77 94 -117 169 -123 77 -6 121 4 160 38 19 17 36 30 40 30 3 0 6
-16 6 -35 l0 -35 80 0 80 0 0 355 0 355 -80 0 -80 0 0 -120z m-47 -218 c82
-77 35 -233 -71 -236 -74 -1 -124 53 -124 135 0 60 21 95 73 122 42 21 84 14
122 -21z"/>
<path d="M1460 500 l0 -340 80 0 80 0 0 140 0 140 130 0 130 0 0 -140 0 -140
80 0 80 0 0 340 0 340 -80 0 -80 0 0 -135 0 -135 -130 0 -130 0 0 135 0 135
-80 0 -80 0 0 -340z"/>
<path d="M3350 765 l0 -65 -30 0 -30 0 0 -70 0 -70 29 0 29 0 4 -142 c2 -121
6 -148 23 -177 28 -48 83 -73 171 -79 l74 -5 0 72 0 71 -45 0 c-59 0 -65 13
-65 149 l0 111 55 0 55 0 0 70 0 70 -55 0 -55 0 0 65 0 65 -80 0 -80 0 0 -65z"/>
<path d="M2285 676 c-55 -25 -109 -80 -133 -135 -22 -51 -21 -165 1 -223 24
-61 100 -131 161 -148 60 -17 181 -9 229 14 49 24 92 67 120 120 17 33 22 58
22 126 0 76 -3 91 -30 138 -30 56 -83 100 -144 120 -59 21 -169 15 -226 -12z
m168 -120 c46 -19 70 -59 70 -120 1 -101 -63 -161 -145 -136 -52 15 -78 58
-78 128 0 66 22 109 63 127 41 18 50 18 90 1z"/>
<path d="M2875 681 c-126 -57 -138 -209 -20 -269 11 -5 57 -20 102 -32 92 -25
121 -47 104 -78 -22 -42 -96 -39 -130 4 -17 22 -26 24 -95 24 -66 0 -76 -2
-76 -17 0 -50 74 -122 146 -143 59 -18 180 -9 229 16 52 26 88 92 82 147 -10
78 -52 112 -182 147 -95 26 -123 46 -106 79 7 11 22 23 35 27 30 7 96 -20 96
-40 0 -13 14 -16 76 -16 l77 0 -7 32 c-9 46 -52 97 -100 119 -56 25 -176 25
-231 0z"/>
<path d="M4380 430 l0 -270 79 0 80 0 3 176 3 176 33 29 c36 32 77 37 121 15
45 -24 51 -52 51 -231 l0 -165 80 0 80 0 0 183 c0 100 -5 199 -11 220 -13 47
-63 106 -106 123 -69 29 -178 11 -230 -38 l-23 -21 0 36 0 37 -80 0 -80 0 0
-270z"/>
</g>
</svg>
