<svg xmlns="http://www.w3.org/2000/svg" width="557" height="101" viewBox="0 0 557 101" version="1.1"><path d="M 42.019 3.976 C 38.777 8.070, 3.214 79.502, 1.027 86.315 C -0.651 91.541, 0.456 96.597, 3.751 98.758 C 6.149 100.330, 10.364 100.526, 46.954 100.763 C 91.561 101.053, 95.702 100.660, 99.322 95.785 C 101.146 93.328, 101.218 92.664, 100.075 88.785 C 98.052 81.922, 60.165 8.553, 56.330 4.073 C 53.377 0.622, 52.258 0, 49.006 0 C 45.727 0, 44.710 0.579, 42.019 3.976 M 371 49 L 371 85 380 85 C 388.947 85, 389 84.985, 389 82.486 L 389 79.972 393.060 82.659 C 404.873 90.476, 421.736 84.275, 427.059 70.157 C 429.861 62.726, 429.465 49.637, 426.252 43.432 C 423.563 38.239, 417.323 32.592, 412.525 31.008 C 406.695 29.084, 397.914 30.130, 393.090 33.321 L 389 36.028 389 24.514 L 389 13 380 13 L 371 13 371 49 M 540 25.174 L 540 37.349 537.736 35.222 C 528.906 26.926, 512.162 29.045, 505.124 39.350 C 501.101 45.239, 499.672 50.408, 499.726 58.868 C 499.766 65.206, 500.243 67.159, 503.136 72.830 C 505.787 78.025, 507.516 80.050, 511.294 82.383 C 519.561 87.486, 530.224 87.048, 537.025 81.325 L 540 78.822 540 81.911 L 540 85 548.500 85 L 557 85 557 49 L 557 13 548.500 13 L 540 13 540 25.174 M 145 51 L 145 85 153.500 85 L 162 85 162 71 L 162 57 174.500 57 L 187 57 187 71 L 187 85 196 85 L 205 85 205 51 L 205 17 196 17 L 187 17 187 30 L 187 43 174.500 43 L 162 43 162 30 L 162 17 153.500 17 L 145 17 145 51 M 335 23.960 L 335 31 331.500 31 L 328 31 328 38 L 328 45 331.500 45 L 335 45 335 59.114 C 335 71.771, 335.225 73.629, 337.184 77.114 C 340.319 82.692, 345.626 85, 355.316 85 L 363 85 363 78 L 363 71 360.065 71 C 358.451 71, 355.976 70.561, 354.565 70.025 C 352.008 69.053, 352 69.012, 352 57.025 L 352 45 357.500 45 L 363 45 363 38 L 363 31 357.546 31 L 352.091 31 351.796 24.250 L 351.500 17.500 343.250 17.210 L 335 16.919 335 23.960 M 230.969 31.536 C 224.828 33.429, 218.228 39.316, 215.374 45.444 C 212.240 52.175, 212.104 63.418, 215.077 70 C 221.180 83.512, 237.372 89.574, 252.369 83.963 C 258.467 81.681, 265.132 75.270, 267.727 69.190 C 270.108 63.612, 269.906 51.587, 267.339 46 C 261.425 33.129, 245.869 26.943, 230.969 31.536 M 288.544 31.529 C 280.905 34.442, 277 39.951, 277 47.815 C 277 56.255, 280.833 59.423, 296.487 63.921 C 305.757 66.585, 307.659 68.297, 304.960 71.548 C 303.147 73.733, 296.395 73.395, 294 71 C 292.900 69.900, 292 68.550, 292 68 C 292 67.411, 288.458 67, 283.375 67 L 274.750 67 275.399 70.246 C 278.100 83.750, 301.463 90.925, 314.727 82.324 C 319.970 78.924, 322.001 75.298, 321.996 69.346 C 321.989 60.390, 317.262 55.937, 304.160 52.541 C 293.380 49.748, 290.807 47.593, 294.200 44.200 C 297.077 41.323, 306 44.197, 306 48 C 306 48.585, 309.375 49, 314.125 49 L 322.250 49 321.603 45.766 C 320.597 40.736, 316.413 35.253, 311.749 32.854 C 306.260 30.031, 294.269 29.346, 288.544 31.529 M 463.791 30.988 C 462.302 31.437, 459.714 32.779, 458.041 33.971 L 455 36.136 455 33.568 C 455 31.001, 454.997 31, 446 31 L 437 31 437 58 L 437 85 446 85 L 455 85 455 68.434 C 455 47.836, 456.115 45.098, 464.527 45.032 C 473.321 44.962, 474.986 48.974, 474.994 70.250 L 475 85 483.500 85 L 492 85 492 67.115 C 492 53.175, 491.633 48.095, 490.339 44.085 C 486.891 33.411, 475.082 27.585, 463.791 30.988 M 235.301 46.958 C 229.694 50.377, 228.507 61.561, 233.126 67.433 C 237.513 73.010, 247.721 71.305, 250.555 64.522 C 255.729 52.139, 245.715 40.608, 235.301 46.958 M 394.225 46.948 C 390.489 49.290, 389 52.439, 389 58 C 389 63.561, 390.489 66.710, 394.225 69.052 C 403.451 74.836, 414.081 65.442, 411.050 54.185 C 408.942 46.358, 400.772 42.844, 394.225 46.948 M 522.756 46.755 C 515.179 51.453, 515.276 64.778, 522.920 69.294 C 533.287 75.417, 544.003 63.238, 538.484 51.607 C 535.617 45.565, 528.310 43.311, 522.756 46.755" stroke="none" fill="#9c051c" fill-rule="evenodd"/></svg>